<svg width="512" height="512" viewBox="0 0 512 512" fill="none" xmlns="http://www.w3.org/2000/svg">
<g clip-path="url(#clip0_8_179)">
<rect x="-1" y="38" width="513" height="437" rx="29" fill="url(#paint0_linear_8_179)"/>
<path style="mix-blend-mode:lighten" d="M-1 67C-1 50.9837 11.9837 38 28 38H483C499.016 38 512 50.9837 512 67V162H-1V67Z" fill="white" fill-opacity="0.2"/>
<g style="mix-blend-mode:lighten">
<path d="M314 38H483C499.016 38 512 50.9837 512 67V162H314V38Z" fill="white" fill-opacity="0.2"/>
</g>
<g filter="url(#filter0_d_8_179)">
<path d="M403.217 232.2L445.733 274.74C449.247 278.255 449.247 283.955 445.733 287.471L369.289 363.957C365.776 367.473 360.079 367.473 356.565 363.957L314.049 321.418L403.217 232.2Z" fill="#CCCCCC"/>
<path d="M185.165 353.95L129.906 298.66L225.321 203.192C196.672 171.609 153.053 136.328 89.0555 108.337C133.754 94.7131 247.661 89.5003 345.702 177.644C348.452 180.116 351.125 182.52 353.723 184.857V223.413L391.49 222.646L304.852 309.332V269.163H269.904L185.165 353.95Z" fill="url(#paint1_linear_8_179)"/>
<path d="M185.165 353.95L129.906 298.66L225.321 203.192C196.672 171.609 153.053 136.328 89.0555 108.337C133.754 94.7131 247.661 89.5003 345.702 177.644C348.452 180.116 351.125 182.52 353.723 184.857V223.413L391.49 222.646L304.852 309.332V269.163H269.904L185.165 353.95Z" fill="white" fill-opacity="0.4"/>
<mask id="mask0_8_179" style="mask-type:alpha" maskUnits="userSpaceOnUse" x="-1" y="38" width="513" height="437">
<rect x="-0.5" y="38.5" width="512" height="436" rx="28.5" fill="url(#paint2_linear_8_179)" stroke="black"/>
</mask>
<g mask="url(#mask0_8_179)">
<rect width="359.197" height="121.47" rx="18" transform="matrix(0.706911 -0.707303 0.706911 0.707303 -131.051 529.613)" fill="url(#paint3_linear_8_179)"/>
<rect width="359.197" height="121.47" rx="18" transform="matrix(0.706911 -0.707303 0.706911 0.707303 -131.051 529.613)" fill="black" fill-opacity="0.1"/>
</g>
</g>
</g>
<defs>
<filter id="filter0_d_8_179" x="-5" y="100.621" width="457.369" height="382.379" filterUnits="userSpaceOnUse" color-interpolation-filters="sRGB">
<feFlood flood-opacity="0" result="BackgroundImageFix"/>
<feColorMatrix in="SourceAlpha" type="matrix" values="0 0 0 0 0 0 0 0 0 0 0 0 0 0 0 0 0 0 127 0" result="hardAlpha"/>
<feOffset dy="4"/>
<feGaussianBlur stdDeviation="2"/>
<feComposite in2="hardAlpha" operator="out"/>
<feColorMatrix type="matrix" values="0 0 0 0 0 0 0 0 0 0 0 0 0 0 0 0 0 0 0.25 0"/>
<feBlend mode="normal" in2="BackgroundImageFix" result="effect1_dropShadow_8_179"/>
<feBlend mode="normal" in="SourceGraphic" in2="effect1_dropShadow_8_179" result="shape"/>
</filter>
<linearGradient id="paint0_linear_8_179" x1="256" y1="38" x2="255.5" y2="475" gradientUnits="userSpaceOnUse">
<stop stop-color="#8462C0"/>
<stop offset="1" stop-color="#631AB4"/>
</linearGradient>
<linearGradient id="paint1_linear_8_179" x1="240.273" y1="100.621" x2="240.273" y2="353.95" gradientUnits="userSpaceOnUse">
<stop stop-color="#C4C4C4"/>
<stop offset="1" stop-color="#898989"/>
</linearGradient>
<linearGradient id="paint2_linear_8_179" x1="255.5" y1="38" x2="33.8497" y2="316.458" gradientUnits="userSpaceOnUse">
<stop stop-color="#915EEA"/>
<stop offset="0.664629" stop-color="#50009F"/>
</linearGradient>
<linearGradient id="paint3_linear_8_179" x1="360.898" y1="-59.8295" x2="179.598" y2="121.47" gradientUnits="userSpaceOnUse">
<stop stop-color="#C4C4C4"/>
<stop offset="1" stop-color="#898989"/>
</linearGradient>
<clipPath id="clip0_8_179">
<rect width="512" height="512" fill="white"/>
</clipPath>
</defs>
</svg>
